<?xml version="1.0" encoding="utf-8"?>
<!-- Generator: Adobe Illustrator 27.6.1, SVG Export Plug-In . SVG Version: 6.00 Build 0)  -->
<svg version="1.1" id="Capa_1" xmlns="http://www.w3.org/2000/svg" xmlns:xlink="http://www.w3.org/1999/xlink" x="0px" y="0px"
	 viewBox="0 0 31 34" style="enable-background:new 0 0 31 34;" xml:space="preserve">
<style type="text/css">
	.st0{fill-rule:evenodd;clip-rule:evenodd;fill:#3F008D;}
	
		.st1{clip-path:url(#SVGID_00000127759699959068887320000015176391872039917212_);fill:url(#SVGID_00000044865357125221547630000003255365810849347736_);}
	.st2{filter:url(#Adobe_OpacityMaskFilter);}
	
		.st3{clip-path:url(#SVGID_00000105409251581242310560000002492828886455013529_);fill:url(#SVGID_00000142137192752922474470000016473936636466637227_);}
	
		.st4{clip-path:url(#SVGID_00000105409251581242310560000002492828886455013529_);mask:url(#SVGID_00000005950131020642258100000002567435894011148160_);fill-rule:evenodd;clip-rule:evenodd;fill:#FFFFFF;}
	
		.st5{clip-path:url(#SVGID_00000107582651274695932430000006622877444251529124_);fill:url(#SVGID_00000026857899506603345350000003633222255523713980_);}
	.st6{filter:url(#Adobe_OpacityMaskFilter_00000035495509736939882190000002297212397110976430_);}
	
		.st7{clip-path:url(#SVGID_00000150795971592554338860000002080554510313993096_);fill:url(#SVGID_00000167392898961747014780000003309789279513129605_);}
	
		.st8{clip-path:url(#SVGID_00000150795971592554338860000002080554510313993096_);mask:url(#SVGID_00000170246016414430501220000015235753366403289493_);fill-rule:evenodd;clip-rule:evenodd;fill:#FFFFFF;}
	
		.st9{clip-path:url(#SVGID_00000019644665500321845830000008378765216717283504_);fill:url(#SVGID_00000176743213498015973770000008698066705621524097_);}
	.st10{filter:url(#Adobe_OpacityMaskFilter_00000121257267418697114260000008973774125512594874_);}
	
		.st11{clip-path:url(#SVGID_00000163047718704420252890000013879662644065249959_);fill:url(#SVGID_00000152964281554369951570000015864467696019908487_);}
	
		.st12{clip-path:url(#SVGID_00000163047718704420252890000013879662644065249959_);mask:url(#SVGID_00000034805203357486856570000002518755682476942489_);fill-rule:evenodd;clip-rule:evenodd;fill:#FFFFFF;}
</style>
<g>
	<path class="st0" d="M10.2,19.9c-2.6,2.8-5.2,5.2-7.6,8.3c2.9-2.7,5.5-4.4,8.6-6.8L10.2,19.9z M28,12.2l0.1-1.7l-5.7-2.2
		c-2.4,2-4.8,4.1-7.1,6.3l1.2,3.1C20.2,14.9,23.6,13.5,28,12.2z"/>
	<path class="st0" d="M12.7,19.3L12.4,6.7l1.9,0.9c-0.8,7.1,2.5,13.4,8,19.4L12.7,19.3z"/>
	<g>
		<defs>
			<path id="SVGID_1_" d="M22.6,27.2c-6.5-6.3-9.6-13.6-9.8-21.7l-8.5,7.8C9.7,19.1,15.9,23.7,22.6,27.2"/>
		</defs>
		<clipPath id="SVGID_00000083064669382365719980000006358942119076173993_">
			<use xlink:href="#SVGID_1_"  style="overflow:visible;"/>
		</clipPath>
		
			<linearGradient id="SVGID_00000067223709136102688670000014870472091283172773_" gradientUnits="userSpaceOnUse" x1="14.9302" y1="15.0016" x2="11.0657" y2="18.435">
			<stop  offset="0" style="stop-color:#9800CB"/>
			<stop  offset="1" style="stop-color:#400058"/>
		</linearGradient>
		
			<rect x="4.3" y="5.4" style="clip-path:url(#SVGID_00000083064669382365719980000006358942119076173993_);fill:url(#SVGID_00000067223709136102688670000014870472091283172773_);" width="18.3" height="21.7"/>
	</g>
	<g>
		<defs>
			<path id="SVGID_00000170972992269802372000000005780737002385788549_" d="M22.6,27.2c-6.5-6.3-9.6-13.6-9.8-21.7l-8.5,7.8
				C9.7,19.1,15.9,23.7,22.6,27.2"/>
		</defs>
		<clipPath id="SVGID_00000107572058632319805590000013430553075237837973_">
			<use xlink:href="#SVGID_00000170972992269802372000000005780737002385788549_"  style="overflow:visible;"/>
		</clipPath>
		<defs>
			<filter id="Adobe_OpacityMaskFilter" filterUnits="userSpaceOnUse" x="4.6" y="5.5" width="17.8" height="21.6">
				<feColorMatrix  type="matrix" values="1 0 0 0 0  0 1 0 0 0  0 0 1 0 0  0 0 0 1 0"/>
			</filter>
		</defs>
		
			<mask maskUnits="userSpaceOnUse" x="4.6" y="5.5" width="17.8" height="21.6" id="SVGID_00000000212962414456382980000012281804182616038288_">
			<g class="st2">
				
					<linearGradient id="SVGID_00000134953473121135406480000005256035776085997188_" gradientUnits="userSpaceOnUse" x1="-570.5515" y1="489.2852" x2="-554.1501" y2="506.7538" gradientTransform="matrix(1 0 0 1 569.1223 -488.9211)">
					<stop  offset="0" style="stop-color:#FFFFFF"/>
					<stop  offset="1" style="stop-color:#000000"/>
				</linearGradient>
				
					<rect x="4.6" y="5.5" style="clip-path:url(#SVGID_00000107572058632319805590000013430553075237837973_);fill:url(#SVGID_00000134953473121135406480000005256035776085997188_);" width="17.8" height="21.6"/>
			</g>
		</mask>
		
			<path style="clip-path:url(#SVGID_00000107572058632319805590000013430553075237837973_);mask:url(#SVGID_00000000212962414456382980000012281804182616038288_);fill-rule:evenodd;clip-rule:evenodd;fill:#FFFFFF;" d="
			M22.4,27c-6.1-6-9.1-13.4-9.6-21.6l-8.2,7.7L12.2,7C12.8,15.4,16.5,21.9,22.4,27"/>
	</g>
	<g>
		<defs>
			<path id="SVGID_00000085948505320518074200000011987926962591024269_" d="M9.8,19.4c-2.6,2.9-5.2,6-7.6,9.1
				c3-2.8,6.1-5.5,9.2-7.9L9.8,19.4z"/>
		</defs>
		<clipPath id="SVGID_00000016072422606789037730000008293627535308018617_">
			<use xlink:href="#SVGID_00000085948505320518074200000011987926962591024269_"  style="overflow:visible;"/>
		</clipPath>
		
			<linearGradient id="SVGID_00000159444110421446923210000000253776400489997954_" gradientUnits="userSpaceOnUse" x1="6.0384" y1="23.1589" x2="7.0571" y2="24.2638">
			<stop  offset="0" style="stop-color:#9800CB"/>
			<stop  offset="1" style="stop-color:#400058"/>
		</linearGradient>
		
			<rect x="2.2" y="19.4" style="clip-path:url(#SVGID_00000016072422606789037730000008293627535308018617_);fill:url(#SVGID_00000159444110421446923210000000253776400489997954_);" width="9.2" height="9.1"/>
	</g>
	<g>
		<defs>
			<path id="SVGID_00000060014278658918437860000007737625732808413352_" d="M9.8,19.4c-2.6,2.9-5.2,6-7.6,9.1
				c3-2.8,6.1-5.5,9.2-7.9L9.8,19.4z"/>
		</defs>
		<clipPath id="SVGID_00000078741652069432029030000015751668259584977327_">
			<use xlink:href="#SVGID_00000060014278658918437860000007737625732808413352_"  style="overflow:visible;"/>
		</clipPath>
		<defs>
			
				<filter id="Adobe_OpacityMaskFilter_00000013183924916647974800000010359387995991828147_" filterUnits="userSpaceOnUse" x="2.4" y="7.5" width="27" height="20.7">
				<feColorMatrix  type="matrix" values="1 0 0 0 0  0 1 0 0 0  0 0 1 0 0  0 0 0 1 0"/>
			</filter>
		</defs>
		
			<mask maskUnits="userSpaceOnUse" x="2.4" y="7.5" width="27" height="20.7" id="SVGID_00000057108950607231164660000003593100635483146900_">
			<g style="filter:url(#Adobe_OpacityMaskFilter_00000013183924916647974800000010359387995991828147_);">
				
					<linearGradient id="SVGID_00000036956466025036245630000015740849407359764365_" gradientUnits="userSpaceOnUse" x1="-553.7105" y1="493.7208" x2="-547.8733" y2="507.9931" gradientTransform="matrix(1 0 0 1 565.1742 -486.8164)">
					<stop  offset="0" style="stop-color:#FFFFFF"/>
					<stop  offset="1" style="stop-color:#000000"/>
				</linearGradient>
				
					<rect x="2.4" y="7.5" style="clip-path:url(#SVGID_00000078741652069432029030000015751668259584977327_);fill:url(#SVGID_00000036956466025036245630000015740849407359764365_);" width="27" height="20.7"/>
			</g>
		</mask>
		
			<path style="clip-path:url(#SVGID_00000078741652069432029030000015751668259584977327_);mask:url(#SVGID_00000057108950607231164660000003593100635483146900_);fill-rule:evenodd;clip-rule:evenodd;fill:#FFFFFF;" d="
			M22.2,7.5c-8,6.7-14.4,13.6-19.7,20.7c5.7-7.1,12-14.2,20-20l6.9,2.6L22.2,7.5z"/>
	</g>
	<g>
		<defs>
			<path id="SVGID_00000121972414988679999250000005166359734546023098_" d="M28.8,10.6l-6.6-3c-2.5,2-4.9,4.2-7.2,6.5l1.3,3.1
				C20.2,14.5,24.4,12.3,28.8,10.6"/>
		</defs>
		<clipPath id="SVGID_00000053531940538926245670000000951669868897558456_">
			<use xlink:href="#SVGID_00000121972414988679999250000005166359734546023098_"  style="overflow:visible;"/>
		</clipPath>
		
			<linearGradient id="SVGID_00000008112702498536229270000013178407703276372390_" gradientUnits="userSpaceOnUse" x1="20.2292" y1="10.5196" x2="24.3471" y2="15.0471">
			<stop  offset="0" style="stop-color:#9800CB"/>
			<stop  offset="1" style="stop-color:#400058"/>
		</linearGradient>
		
			<rect x="15" y="7.5" style="clip-path:url(#SVGID_00000053531940538926245670000000951669868897558456_);fill:url(#SVGID_00000008112702498536229270000013178407703276372390_);" width="13.8" height="9.6"/>
	</g>
	<g>
		<defs>
			<path id="SVGID_00000159430317239257692420000009807473272525992339_" d="M28.8,10.6l-6.6-3c-2.5,2-4.9,4.2-7.2,6.5l1.3,3.1
				C20.2,14.5,24.4,12.3,28.8,10.6"/>
		</defs>
		<clipPath id="SVGID_00000062913167831459438260000002597291138208274861_">
			<use xlink:href="#SVGID_00000159430317239257692420000009807473272525992339_"  style="overflow:visible;"/>
		</clipPath>
		<defs>
			
				<filter id="Adobe_OpacityMaskFilter_00000182494450035686904570000011834612280699717769_" filterUnits="userSpaceOnUse" x="2.4" y="7.5" width="27" height="20.7">
				<feColorMatrix  type="matrix" values="1 0 0 0 0  0 1 0 0 0  0 0 1 0 0  0 0 0 1 0"/>
			</filter>
		</defs>
		
			<mask maskUnits="userSpaceOnUse" x="2.4" y="7.5" width="27" height="20.7" id="SVGID_00000065759819328300110110000014474755078161876405_">
			<g style="filter:url(#Adobe_OpacityMaskFilter_00000182494450035686904570000011834612280699717769_);">
				
					<linearGradient id="SVGID_00000014600946219232252750000002106130994658201986_" gradientUnits="userSpaceOnUse" x1="-555.5626" y1="489.2123" x2="-549.72" y2="503.4793" gradientTransform="matrix(1 0 0 1 565.1742 -486.8164)">
					<stop  offset="0" style="stop-color:#FFFFFF"/>
					<stop  offset="1" style="stop-color:#000000"/>
				</linearGradient>
				
					<rect x="2.4" y="7.5" style="clip-path:url(#SVGID_00000062913167831459438260000002597291138208274861_);fill:url(#SVGID_00000014600946219232252750000002106130994658201986_);" width="27" height="20.7"/>
			</g>
		</mask>
		
			<path style="clip-path:url(#SVGID_00000062913167831459438260000002597291138208274861_);mask:url(#SVGID_00000065759819328300110110000014474755078161876405_);fill-rule:evenodd;clip-rule:evenodd;fill:#FFFFFF;" d="
			M22.2,7.5c-8,6.7-14.4,13.6-19.7,20.7c5.7-7.1,12-14.2,20-20l6.9,2.6L22.2,7.5z"/>
	</g>
</g>
</svg>
